<svg width="31" height="31" viewBox="0 0 31 31" fill="none" xmlns="http://www.w3.org/2000/svg">
<path d="M15.5013 28.4167C16.9221 28.4167 18.0846 27.2542 18.0846 25.8334H12.918C12.918 27.2542 14.0805 28.4167 15.5013 28.4167ZM23.2513 20.6667V14.2084C23.2513 10.243 21.1459 6.92341 17.4388 6.04508V5.16675C17.4388 4.09466 16.5734 3.22925 15.5013 3.22925C14.4292 3.22925 13.5638 4.09466 13.5638 5.16675V6.04508C9.86964 6.92341 7.7513 10.2301 7.7513 14.2084V20.6667L5.16797 23.2501V24.5417H25.8346V23.2501L23.2513 20.6667ZM20.668 21.9584H10.3346V14.2084C10.3346 11.0051 12.2851 8.39592 15.5013 8.39592C18.7176 8.39592 20.668 11.0051 20.668 14.2084V21.9584Z" fill="#C7C7C7"/>
</svg>
